<?xml version="1.0" encoding="UTF-8" standalone="no"?>
<!DOCTYPE svg PUBLIC "-//W3C//DTD SVG 1.1//EN"
 "http://www.w3.org/Graphics/SVG/1.1/DTD/svg11.dtd">
<!-- Generated by graphviz version 2.40.1 (20161225.0304)
 -->
<!-- Title: G Pages: 1 -->
<svg width="889pt" height="450pt"
 viewBox="0.00 0.00 888.54 449.60" xmlns="http://www.w3.org/2000/svg" xmlns:xlink="http://www.w3.org/1999/xlink">
<g id="graph0" class="graph" transform="scale(1 1) rotate(0) translate(4 445.6)">
<title>G</title>
<polygon fill="#ffffff" stroke="transparent" points="-4,4 -4,-445.6 884.5373,-445.6 884.5373,4 -4,4"/>
<!-- Music Manager -->
<g id="node1" class="node">
<title>Music Manager</title>
<ellipse fill="none" stroke="#000000" cx="556.1613" cy="-423.6" rx="71.8105" ry="18"/>
<text text-anchor="middle" x="556.1613" y="-419.4" font-family="Times,serif" font-size="14.00" fill="#000000">Music Manager</text>
</g>
<!-- Music Information Service -->
<g id="node2" class="node">
<title>Music Information Service</title>
<ellipse fill="none" stroke="#000000" cx="556.1613" cy="-318" rx="115.1667" ry="18"/>
<text text-anchor="middle" x="556.1613" y="-313.8" font-family="Times,serif" font-size="14.00" fill="#000000">Music Information Service</text>
</g>
<!-- Music Manager&#45;&gt;Music Information Service -->
<g id="edge1" class="edge">
<title>Music Manager&#45;&gt;Music Information Service</title>
<path fill="none" stroke="#000000" d="M519.0937,-408.0186C510.9564,-402.7734 503.3818,-396.0449 498.7075,-387.6 491.4758,-374.5345 491.4758,-367.0655 498.7075,-354 501.3795,-349.1725 504.9993,-344.9059 509.1302,-341.1566"/>
<polygon fill="#000000" stroke="#000000" points="511.3209,-343.8865 517.0235,-334.9573 506.9972,-338.3815 511.3209,-343.8865"/>
<text text-anchor="middle" x="546.3882" y="-375" font-family="Times,serif" font-size="14.00" fill="#000000">Asks for</text>
<text text-anchor="middle" x="546.3882" y="-358.2" font-family="Times,serif" font-size="14.00" fill="#000000">artist/record Info</text>
</g>
<!-- Music Information Service&#45;&gt;Music Manager -->
<g id="edge2" class="edge">
<title>Music Information Service&#45;&gt;Music Manager</title>
<path fill="none" stroke="#000000" d="M580.2425,-335.9022C585.4789,-341.1029 590.3025,-347.2296 593.1613,-354 598.9704,-367.7571 598.9704,-373.8429 593.1613,-387.6 591.4748,-391.5941 589.1044,-395.3642 586.369,-398.8523"/>
<polygon fill="#000000" stroke="#000000" points="583.6009,-396.6944 579.4734,-406.4522 588.7851,-401.3981 583.6009,-396.6944"/>
<text text-anchor="middle" x="634.8924" y="-375" font-family="Times,serif" font-size="14.00" fill="#000000">Returns</text>
<text text-anchor="middle" x="634.8924" y="-358.2" font-family="Times,serif" font-size="14.00" fill="#000000">required Info</text>
</g>
<!-- Pub/Sub -->
<g id="node4" class="node">
<title>Pub/Sub</title>
<ellipse fill="none" stroke="#000000" cx="399.1613" cy="-212.4" rx="43.5425" ry="18"/>
<text text-anchor="middle" x="399.1613" y="-208.2" font-family="Times,serif" font-size="14.00" fill="#000000">Pub/Sub</text>
</g>
<!-- Music Information Service&#45;&gt;Pub/Sub -->
<g id="edge4" class="edge">
<title>Music Information Service&#45;&gt;Pub/Sub</title>
<path fill="none" stroke="#000000" d="M529.8831,-300.3249C502.6694,-282.0207 460.1317,-253.4094 431.0204,-233.8287"/>
<polygon fill="#000000" stroke="#000000" points="432.6998,-230.7403 422.4487,-228.0633 428.793,-236.5487 432.6998,-230.7403"/>
<text text-anchor="middle" x="588.6424" y="-269.4" font-family="Times,serif" font-size="14.00" fill="#000000">Send Job</text>
<text text-anchor="middle" x="588.6424" y="-252.6" font-family="Times,serif" font-size="14.00" fill="#000000">Retrieve info from main option</text>
</g>
<!-- Key/Value Storage -->
<g id="node3" class="node">
<title>Key/Value Storage</title>
<ellipse fill="none" stroke="#000000" cx="373.1613" cy="-18" rx="84.5506" ry="18"/>
<text text-anchor="middle" x="373.1613" y="-13.8" font-family="Times,serif" font-size="14.00" fill="#000000">Key/Value Storage</text>
</g>
<!-- Key/Value Storage&#45;&gt;Music Information Service -->
<g id="edge3" class="edge">
<title>Key/Value Storage&#45;&gt;Music Information Service</title>
<path fill="none" stroke="#000000" d="M433.9345,-30.6303C444.958,-32.6379 456.3772,-34.5327 467.1613,-36 491.5733,-39.3216 671.3608,-35.9801 688.1613,-54 757.3058,-128.1628 744.4397,-203.582 680.1613,-282 674.0502,-289.4555 658.0489,-295.9648 639.4928,-301.3223"/>
<polygon fill="#000000" stroke="#000000" points="638.324,-298.013 629.5951,-304.0178 640.1634,-304.767 638.324,-298.013"/>
<text text-anchor="middle" x="807.8493" y="-155.4" font-family="Times,serif" font-size="14.00" fill="#000000">Retrieve artist/record Info</text>
</g>
<!-- Metal Archives Wrapper -->
<g id="node5" class="node">
<title>Metal Archives Wrapper</title>
<ellipse fill="none" stroke="#000000" cx="174.1613" cy="-106.8" rx="107.0415" ry="18"/>
<text text-anchor="middle" x="174.1613" y="-102.6" font-family="Times,serif" font-size="14.00" fill="#000000">Metal Archives Wrapper</text>
</g>
<!-- Pub/Sub&#45;&gt;Metal Archives Wrapper -->
<g id="edge10" class="edge">
<title>Pub/Sub&#45;&gt;Metal Archives Wrapper</title>
<path fill="none" stroke="#000000" d="M355.5895,-210.3336C276.293,-206.124 114.9876,-195.3163 98.1991,-176.4 88.2866,-165.2311 90.2148,-155.4196 98.1991,-142.8 101.8689,-136.9997 106.7542,-132.1156 112.2844,-128.0068"/>
<polygon fill="#000000" stroke="#000000" points="114.2759,-130.8872 120.7819,-122.5252 110.4813,-125.0049 114.2759,-130.8872"/>
<text text-anchor="middle" x="186.6424" y="-163.8" font-family="Times,serif" font-size="14.00" fill="#000000">Process Job</text>
<text text-anchor="middle" x="186.6424" y="-147" font-family="Times,serif" font-size="14.00" fill="#000000">Retrieve info from main option</text>
</g>
<!-- Musicbrainz Wrapper -->
<g id="node7" class="node">
<title>Musicbrainz Wrapper</title>
<ellipse fill="none" stroke="#000000" cx="504.1613" cy="-106.8" rx="95.4865" ry="18"/>
<text text-anchor="middle" x="504.1613" y="-102.6" font-family="Times,serif" font-size="14.00" fill="#000000">Musicbrainz Wrapper</text>
</g>
<!-- Pub/Sub&#45;&gt;Musicbrainz Wrapper -->
<g id="edge8" class="edge">
<title>Pub/Sub&#45;&gt;Musicbrainz Wrapper</title>
<path fill="none" stroke="#000000" d="M437.2186,-203.4427C453.0202,-197.9871 470.3796,-189.4635 482.1613,-176.4 492.4416,-165.0013 497.9188,-148.808 500.8366,-134.909"/>
<polygon fill="#000000" stroke="#000000" points="504.3215,-135.3 502.6062,-124.8449 497.4272,-134.0877 504.3215,-135.3"/>
<text text-anchor="middle" x="592.0814" y="-163.8" font-family="Times,serif" font-size="14.00" fill="#000000">Process Job</text>
<text text-anchor="middle" x="592.0814" y="-147" font-family="Times,serif" font-size="14.00" fill="#000000">Retrieve info from second option</text>
</g>
<!-- Metal Archives Wrapper&#45;&gt;Key/Value Storage -->
<g id="edge9" class="edge">
<title>Metal Archives Wrapper&#45;&gt;Key/Value Storage</title>
<path fill="none" stroke="#000000" d="M201.0707,-89.2422C224.2319,-74.1491 254.1692,-54.6943 255.6591,-54 271.9869,-46.3911 290.3255,-39.8854 307.5726,-34.5828"/>
<polygon fill="#000000" stroke="#000000" points="308.9943,-37.8112 317.5779,-31.6004 306.9947,-31.1029 308.9943,-37.8112"/>
<text text-anchor="middle" x="319.9124" y="-58.2" font-family="Times,serif" font-size="14.00" fill="#000000">Store artist/record Info</text>
</g>
<!-- Metal Archives Wrapper&#45;&gt;Pub/Sub -->
<g id="edge11" class="edge">
<title>Metal Archives Wrapper&#45;&gt;Pub/Sub</title>
<path fill="none" stroke="#000000" d="M235.6327,-121.5714C248.979,-126.7573 262.3268,-133.6619 273.1613,-142.8 286.3021,-153.8832 279.0496,-165.4737 292.3211,-176.4 308.2775,-189.5366 329.248,-197.961 348.3815,-203.3256"/>
<polygon fill="#000000" stroke="#000000" points="347.6255,-206.7452 358.1833,-205.8608 349.3783,-199.9682 347.6255,-206.7452"/>
<text text-anchor="middle" x="386.0814" y="-163.8" font-family="Times,serif" font-size="14.00" fill="#000000">Send Job</text>
<text text-anchor="middle" x="386.0814" y="-147" font-family="Times,serif" font-size="14.00" fill="#000000">Retrieve info from second option</text>
</g>
<!-- metal&#45;archives.org -->
<g id="node6" class="node">
<title>metal&#45;archives.org</title>
<ellipse fill="none" stroke="#000000" cx="83.1613" cy="-18" rx="83.323" ry="18"/>
<text text-anchor="middle" x="83.1613" y="-13.8" font-family="Times,serif" font-size="14.00" fill="#000000">metal&#45;archives.org</text>
</g>
<!-- Metal Archives Wrapper&#45;&gt;metal&#45;archives.org -->
<g id="edge5" class="edge">
<title>Metal Archives Wrapper&#45;&gt;metal&#45;archives.org</title>
<path fill="none" stroke="#000000" d="M109.5912,-92.1599C99.4345,-87.0393 90.1913,-80.128 83.7853,-70.8 78.9152,-63.7083 77.5317,-54.7207 77.7332,-46.1802"/>
<polygon fill="#000000" stroke="#000000" points="81.2261,-46.4154 78.6371,-36.1418 74.2543,-45.7876 81.2261,-46.4154"/>
<text text-anchor="middle" x="156.8493" y="-58.2" font-family="Times,serif" font-size="14.00" fill="#000000">Retrieve artist/record Info</text>
</g>
<!-- Musicbrainz Wrapper&#45;&gt;Key/Value Storage -->
<g id="edge7" class="edge">
<title>Musicbrainz Wrapper&#45;&gt;Key/Value Storage</title>
<path fill="none" stroke="#000000" d="M440.0078,-93.3828C425.5698,-88.1221 411.1411,-80.8444 399.6591,-70.8 392.0061,-64.1051 386.3065,-54.6769 382.1952,-45.6365"/>
<polygon fill="#000000" stroke="#000000" points="385.3406,-44.0792 378.3401,-36.1266 378.8534,-46.709 385.3406,-44.0792"/>
<text text-anchor="middle" x="463.9124" y="-58.2" font-family="Times,serif" font-size="14.00" fill="#000000">Store artist/record Info</text>
</g>
<!-- Musicbrainz API -->
<g id="node8" class="node">
<title>Musicbrainz API</title>
<ellipse fill="none" stroke="#000000" cx="553.1613" cy="-18" rx="77.0457" ry="18"/>
<text text-anchor="middle" x="553.1613" y="-13.8" font-family="Times,serif" font-size="14.00" fill="#000000">Musicbrainz API</text>
</g>
<!-- Musicbrainz Wrapper&#45;&gt;Musicbrainz API -->
<g id="edge6" class="edge">
<title>Musicbrainz Wrapper&#45;&gt;Musicbrainz API</title>
<path fill="none" stroke="#000000" d="M519.096,-88.7206C523.3001,-83.1667 527.6729,-76.9048 531.1613,-70.8 535.6941,-62.8676 539.8103,-53.8175 543.2238,-45.4775"/>
<polygon fill="#000000" stroke="#000000" points="546.4998,-46.7104 546.8912,-36.1227 539.9827,-44.1554 546.4998,-46.7104"/>
<text text-anchor="middle" x="611.8493" y="-58.2" font-family="Times,serif" font-size="14.00" fill="#000000">Retrieve artist/record Info</text>
</g>
</g>
</svg>
