<?xml version="1.0" encoding="UTF-8" standalone="no"?>
<!DOCTYPE svg PUBLIC "-//W3C//DTD SVG 1.1//EN"
 "http://www.w3.org/Graphics/SVG/1.1/DTD/svg11.dtd">
<!-- Generated by graphviz version 2.40.1 (20161225.0304)
 -->
<!-- Title: G Pages: 1 -->
<svg width="860pt" height="437pt"
 viewBox="0.00 0.00 860.34 437.00" xmlns="http://www.w3.org/2000/svg" xmlns:xlink="http://www.w3.org/1999/xlink">
<g id="graph0" class="graph" transform="scale(1 1) rotate(0) translate(4 433)">
<title>G</title>
<polygon fill="#ffffff" stroke="transparent" points="-4,4 -4,-433 856.3431,-433 856.3431,4 -4,4"/>
<!-- Music Manager -->
<g id="node1" class="node">
<title>Music Manager</title>
<ellipse fill="none" stroke="#000000" cx="539.3431" cy="-411" rx="67.6881" ry="18"/>
<text text-anchor="middle" x="539.3431" y="-407.3" font-family="Times,serif" font-size="14.00" fill="#000000">Music Manager</text>
</g>
<!-- Music Information Service -->
<g id="node2" class="node">
<title>Music Information Service</title>
<ellipse fill="none" stroke="#000000" cx="539.3431" cy="-309" rx="106.6812" ry="18"/>
<text text-anchor="middle" x="539.3431" y="-305.3" font-family="Times,serif" font-size="14.00" fill="#000000">Music Information Service</text>
</g>
<!-- Music Manager&#45;&gt;Music Information Service -->
<g id="edge1" class="edge">
<title>Music Manager&#45;&gt;Music Information Service</title>
<path fill="none" stroke="#000000" d="M503.7746,-395.6244C495.6239,-390.3266 487.9954,-383.5214 483.3431,-375 476.954,-363.2972 476.954,-356.7028 483.3431,-345 485.9081,-340.3018 489.3778,-336.1254 493.3409,-332.4355"/>
<polygon fill="#000000" stroke="#000000" points="495.8453,-334.9139 501.4622,-325.9305 491.4691,-329.4505 495.8453,-334.9139"/>
<text text-anchor="middle" x="529.3431" y="-363.8" font-family="Times,serif" font-size="14.00" fill="#000000">Asks for</text>
<text text-anchor="middle" x="529.3431" y="-348.8" font-family="Times,serif" font-size="14.00" fill="#000000">artist/record Info</text>
</g>
<!-- Music Information Service&#45;&gt;Music Manager -->
<g id="edge2" class="edge">
<title>Music Information Service&#45;&gt;Music Manager</title>
<path fill="none" stroke="#000000" d="M562.411,-326.6263C567.6492,-331.9066 572.5019,-338.1405 575.3431,-345 580.4456,-357.3184 580.4456,-362.6816 575.3431,-375 573.7069,-378.9503 571.4035,-382.6932 568.7436,-386.1659"/>
<polygon fill="#000000" stroke="#000000" points="566.0398,-383.94 562.0362,-393.7493 571.2831,-388.5776 566.0398,-383.94"/>
<text text-anchor="middle" x="614.3431" y="-363.8" font-family="Times,serif" font-size="14.00" fill="#000000">Returns</text>
<text text-anchor="middle" x="614.3431" y="-348.8" font-family="Times,serif" font-size="14.00" fill="#000000">required Info</text>
</g>
<!-- Pub/Sub -->
<g id="node4" class="node">
<title>Pub/Sub</title>
<ellipse fill="none" stroke="#000000" cx="385.3431" cy="-207" rx="40.0939" ry="18"/>
<text text-anchor="middle" x="385.3431" y="-203.3" font-family="Times,serif" font-size="14.00" fill="#000000">Pub/Sub</text>
</g>
<!-- Music Information Service&#45;&gt;Pub/Sub -->
<g id="edge4" class="edge">
<title>Music Information Service&#45;&gt;Pub/Sub</title>
<path fill="none" stroke="#000000" d="M512.8696,-291.4656C486.1753,-273.785 444.9757,-246.4969 416.6703,-227.7492"/>
<polygon fill="#000000" stroke="#000000" points="418.238,-224.5894 407.9681,-221.9854 414.3725,-230.4254 418.238,-224.5894"/>
<text text-anchor="middle" x="567.3431" y="-261.8" font-family="Times,serif" font-size="14.00" fill="#000000">Send Job</text>
<text text-anchor="middle" x="567.3431" y="-246.8" font-family="Times,serif" font-size="14.00" fill="#000000">Retrieve info from main option</text>
</g>
<!-- Key/Value Storage -->
<g id="node3" class="node">
<title>Key/Value Storage</title>
<ellipse fill="none" stroke="#000000" cx="369.3431" cy="-18" rx="77.9862" ry="18"/>
<text text-anchor="middle" x="369.3431" y="-14.3" font-family="Times,serif" font-size="14.00" fill="#000000">Key/Value Storage</text>
</g>
<!-- Key/Value Storage&#45;&gt;Music Information Service -->
<g id="edge3" class="edge">
<title>Key/Value Storage&#45;&gt;Music Information Service</title>
<path fill="none" stroke="#000000" d="M425.3293,-30.6076C435.6069,-32.6298 446.2692,-34.5355 456.3431,-36 479.7375,-39.4009 652.3496,-36.591 668.3431,-54 734.2755,-125.7677 719.4568,-197.9029 657.3431,-273 651.2983,-280.3083 635.3137,-286.8686 616.99,-292.3236"/>
<polygon fill="#000000" stroke="#000000" points="615.9101,-288.9915 607.2349,-295.0736 617.8095,-295.7289 615.9101,-288.9915"/>
<text text-anchor="middle" x="781.3431" y="-152.3" font-family="Times,serif" font-size="14.00" fill="#000000">Retrieve artist/record Info</text>
</g>
<!-- Metal Archives Wrapper -->
<g id="node5" class="node">
<title>Metal Archives Wrapper</title>
<ellipse fill="none" stroke="#000000" cx="165.3431" cy="-105" rx="99.3824" ry="18"/>
<text text-anchor="middle" x="165.3431" y="-101.3" font-family="Times,serif" font-size="14.00" fill="#000000">Metal Archives Wrapper</text>
</g>
<!-- Pub/Sub&#45;&gt;Metal Archives Wrapper -->
<g id="edge10" class="edge">
<title>Pub/Sub&#45;&gt;Metal Archives Wrapper</title>
<path fill="none" stroke="#000000" d="M345.1919,-205.0277C268.2264,-200.8343 106.0334,-189.8431 89.3431,-171 80.5025,-161.019 82.2131,-152.2668 89.3431,-141 93.1199,-135.032 98.1831,-130.0339 103.9117,-125.8524"/>
<polygon fill="#000000" stroke="#000000" points="106.1254,-128.5938 112.7085,-120.2924 102.3854,-122.6767 106.1254,-128.5938"/>
<text text-anchor="middle" x="175.3431" y="-159.8" font-family="Times,serif" font-size="14.00" fill="#000000">Process Job</text>
<text text-anchor="middle" x="175.3431" y="-144.8" font-family="Times,serif" font-size="14.00" fill="#000000">Retrieve info from main option</text>
</g>
<!-- Musicbrainz Wrapper -->
<g id="node7" class="node">
<title>Musicbrainz Wrapper</title>
<ellipse fill="none" stroke="#000000" cx="488.3431" cy="-105" rx="89.0842" ry="18"/>
<text text-anchor="middle" x="488.3431" y="-101.3" font-family="Times,serif" font-size="14.00" fill="#000000">Musicbrainz Wrapper</text>
</g>
<!-- Pub/Sub&#45;&gt;Musicbrainz Wrapper -->
<g id="edge8" class="edge">
<title>Pub/Sub&#45;&gt;Musicbrainz Wrapper</title>
<path fill="none" stroke="#000000" d="M420.7558,-198.3343C436.5878,-192.8472 454.3439,-184.2166 466.3431,-171 475.8244,-160.5569 481.2335,-145.9072 484.3127,-133.062"/>
<polygon fill="#000000" stroke="#000000" points="487.7422,-133.7604 486.316,-123.2621 480.8841,-132.3585 487.7422,-133.7604"/>
<text text-anchor="middle" x="573.3431" y="-159.8" font-family="Times,serif" font-size="14.00" fill="#000000">Process Job</text>
<text text-anchor="middle" x="573.3431" y="-144.8" font-family="Times,serif" font-size="14.00" fill="#000000">Retrieve info from second option</text>
</g>
<!-- Metal Archives Wrapper&#45;&gt;Key/Value Storage -->
<g id="edge9" class="edge">
<title>Metal Archives Wrapper&#45;&gt;Key/Value Storage</title>
<path fill="none" stroke="#000000" d="M192.2393,-87.6472C212.2426,-74.9382 237.9639,-59.062 249.3431,-54 267.1152,-46.0943 287.1142,-39.3188 305.6157,-33.8488"/>
<polygon fill="#000000" stroke="#000000" points="306.7818,-37.1553 315.4244,-31.027 304.8465,-30.4282 306.7818,-37.1553"/>
<text text-anchor="middle" x="311.3431" y="-57.8" font-family="Times,serif" font-size="14.00" fill="#000000">Store artist/record Info</text>
</g>
<!-- Metal Archives Wrapper&#45;&gt;Pub/Sub -->
<g id="edge11" class="edge">
<title>Metal Archives Wrapper&#45;&gt;Pub/Sub</title>
<path fill="none" stroke="#000000" d="M222.9075,-119.7197C236.4357,-124.9628 250.1548,-131.9061 261.3431,-141 273.5903,-150.9545 267.9555,-161.2208 280.3431,-171 296.8301,-184.0153 318.3128,-192.4737 337.5482,-197.8961"/>
<polygon fill="#000000" stroke="#000000" points="336.8036,-201.319 347.3638,-200.463 338.5747,-194.5468 336.8036,-201.319"/>
<text text-anchor="middle" x="371.3431" y="-159.8" font-family="Times,serif" font-size="14.00" fill="#000000">Send Job</text>
<text text-anchor="middle" x="371.3431" y="-144.8" font-family="Times,serif" font-size="14.00" fill="#000000">Retrieve info from second option</text>
</g>
<!-- metal&#45;arvhives.org -->
<g id="node6" class="node">
<title>metal&#45;arvhives.org</title>
<ellipse fill="none" stroke="#000000" cx="77.3431" cy="-18" rx="77.1866" ry="18"/>
<text text-anchor="middle" x="77.3431" y="-14.3" font-family="Times,serif" font-size="14.00" fill="#000000">metal&#45;arvhives.org</text>
</g>
<!-- Metal Archives Wrapper&#45;&gt;metal&#45;arvhives.org -->
<g id="edge5" class="edge">
<title>Metal Archives Wrapper&#45;&gt;metal&#45;arvhives.org</title>
<path fill="none" stroke="#000000" d="M104.5177,-90.5688C94.2231,-85.4237 84.7948,-78.45 78.3431,-69 73.8297,-62.3889 72.3788,-54.0882 72.3906,-46.1152"/>
<polygon fill="#000000" stroke="#000000" points="75.8921,-46.2165 73.1139,-35.9924 68.91,-45.7175 75.8921,-46.2165"/>
<text text-anchor="middle" x="149.3431" y="-57.8" font-family="Times,serif" font-size="14.00" fill="#000000">Retrieve artist/record Info</text>
</g>
<!-- Musicbrainz Wrapper&#45;&gt;Key/Value Storage -->
<g id="edge7" class="edge">
<title>Musicbrainz Wrapper&#45;&gt;Key/Value Storage</title>
<path fill="none" stroke="#000000" d="M424.4002,-92.3446C410.4348,-87.0609 396.7409,-79.5818 386.3431,-69 380.2045,-62.7527 376.282,-54.2323 373.7757,-45.9449"/>
<polygon fill="#000000" stroke="#000000" points="377.1476,-44.9991 371.3673,-36.12 370.3489,-46.6658 377.1476,-44.9991"/>
<text text-anchor="middle" x="448.3431" y="-57.8" font-family="Times,serif" font-size="14.00" fill="#000000">Store artist/record Info</text>
</g>
<!-- Musicbrainz API -->
<g id="node8" class="node">
<title>Musicbrainz API</title>
<ellipse fill="none" stroke="#000000" cx="536.3431" cy="-18" rx="71.4873" ry="18"/>
<text text-anchor="middle" x="536.3431" y="-14.3" font-family="Times,serif" font-size="14.00" fill="#000000">Musicbrainz API</text>
</g>
<!-- Musicbrainz Wrapper&#45;&gt;Musicbrainz API -->
<g id="edge6" class="edge">
<title>Musicbrainz Wrapper&#45;&gt;Musicbrainz API</title>
<path fill="none" stroke="#000000" d="M502.3713,-87.2006C506.4984,-81.5522 510.8412,-75.168 514.3431,-69 518.561,-61.5709 522.4944,-53.1758 525.8349,-45.3731"/>
<polygon fill="#000000" stroke="#000000" points="529.1547,-46.5031 529.7261,-35.9237 522.682,-43.8376 529.1547,-46.5031"/>
<text text-anchor="middle" x="593.3431" y="-57.8" font-family="Times,serif" font-size="14.00" fill="#000000">Retrieve artist/record Info</text>
</g>
</g>
</svg>
